<?xml version="1.0" ?>
<svg viewBox="0 0 64 64" xmlns="http://www.w3.org/2000/svg">
    <g data-name="17-santa hat" id="_17-santa_hat">
        <path d="M15.3,37.44A49.319,49.319,0,0,0,28,39c14,0,21-5,21-5a6.009,6.009,0,0,1,6,6v7.67a8.011,8.011,0,0,1-5.66,7.65A68.969,68.969,0,0,1,29,58H27A68.969,68.969,0,0,1,6.66,55.32,8.011,8.011,0,0,1,1,47.67V40a6,6,0,0,1,6-6,20.885,20.885,0,0,0,3.99,2.02q.585.24,1.26.48C13.15,36.82,14.17,37.14,15.3,37.44Z" style="fill:#ccf"/>
        <path d="M44.37,22H50a3,3,0,0,0,3-3c0-3.29-2.2-6.07-4.79-8.2a4,4,0,0,1,1.42.06,3.983,3.983,0,0,1,6.74,0,3.989,3.989,0,0,1,4.77,4.77,3.983,3.983,0,0,1,0,6.74,3.989,3.989,0,0,1-4.77,4.77,3.983,3.983,0,0,1-6.74,0,3.968,3.968,0,0,1-3.7-1.07,3.852,3.852,0,0,1-.71-.96,3.961,3.961,0,0,1-.36-2.74A3.5,3.5,0,0,1,44.37,22Z" style="fill:#ebebff"/>
        <path d="M31,26.76a2.647,2.647,0,0,1-.59,1.66,2.546,2.546,0,0,1-1.51.89c-3.5.67-10.47,2.65-13.6,8.13-1.13-.3-2.15-.62-3.05-.94q-.675-.24-1.26-.48L11,36c2.74-3.65,7.46-10.62,17.07-11.82A2.606,2.606,0,0,1,31,26.76Z" style="fill:#c22026"/>
        <path d="000000" id="hex" />
        <path d="M45,14C42.48,8.12,33.2,8.59,29.97,8.89a1.079,1.079,0,0,0,.04,2.15C32.77,11.24,40.37,12.3,42,18a59.525,59.525,0,0,0,2.73,7.32C46.8,30.04,49,34,49,34s-7,5-21,5a49.319,49.319,0,0,1-12.7-1.56c3.13-5.48,10.1-7.46,13.6-8.13a2.546,2.546,0,0,0,1.51-.89A2.647,2.647,0,0,0,31,26.76a2.606,2.606,0,0,0-2.93-2.58C18.46,25.38,13.74,32.35,11,36l-.01.02A20.885,20.885,0,0,1,7,34l7.44-14.32A20,20,0,0,1,33.42,6h2.93a15.922,15.922,0,0,1,7.92,2.09,28.106,28.106,0,0,1,3.94,2.71C50.8,12.93,53,15.71,53,19H51.1A6.208,6.208,0,0,1,45,14Z" style="fill:#eb2335"/>
        <path d="M52.12,21.12A2.993,2.993,0,0,0,53,19H51.1A6.208,6.208,0,0,1,45,14C42.48,8.12,33.2,8.59,29.97,8.89a1.079,1.079,0,0,0,.04,2.15C32.77,11.24,40.37,12.3,42,18c.367,1.288.841,2.643,1.363,4H50A2.993,2.993,0,0,0,52.12,21.12Z" style="fill:#c22026"/>
        <path d="M53.24,35.76A5.944,5.944,0,0,0,49,34s-7,5-21,5a49.319,49.319,0,0,1-12.7-1.56c-1.13-.3-2.15-.62-3.05-.94q-.675-.24-1.26-.48A20.885,20.885,0,0,1,7,34a6.007,6.007,0,0,0-5.879,4.8,4.018,4.018,0,0,0,2.068,2.626C6.506,43.133,14.067,45.679,29,45c5.7-.259,9.857-.653,12.886-1.093A7.076,7.076,0,0,1,48.16,55.666c.41-.115.808-.231,1.18-.346A8.011,8.011,0,0,0,55,47.67V40A5.944,5.944,0,0,0,53.24,35.76Z" style="fill:#ebebff"/>
        <path d="M51.7,27.231A3.784,3.784,0,0,0,56.231,22.7a3.782,3.782,0,0,0,0-6.4A3.783,3.783,0,0,0,51.7,11.769a3.822,3.822,0,0,0-1.663-1.435,4.092,4.092,0,0,0-.409.526,4,4,0,0,0-1.42-.06C50.8,12.93,53,15.71,53,19a3,3,0,0,1-3,3H44.37a3.5,3.5,0,0,0,.49.37,3.961,3.961,0,0,0,.36,2.74,3.852,3.852,0,0,0,.71.96,3.968,3.968,0,0,0,3.7,1.07,4.08,4.08,0,0,0,1.092,1.134A3.849,3.849,0,0,0,51.7,27.231Z" style="fill:#ccf"/>
        <ellipse cx="57.684" cy="16.695" rx="1.642" ry="2.286" style="fill:#f6fafd" transform="translate(5.1 45.697) rotate(-45.02)"/>
        <ellipse cx="58.682" cy="20.708" rx="0.825" ry="1.148" style="fill:#f6fafd" transform="translate(2.554 47.579) rotate(-45.02)"/>
        <path d="M30,42.131a3,3,0,0,0-2.946-3.054q-.924-.016-1.877-.072A3,3,0,0,0,24.823,45c.679.04,1.345.064,2,.077.11,0,.225-.007.335-.011A2.992,2.992,0,0,0,30,42.131Z" style="fill:#f6fafd"/>
        <path d="M31.023,42.08A3,3,0,0,0,34,44.705a3.239,3.239,0,0,0,.379-.023,57.255,57.255,0,0,0,15.746-4.47l.269-.113a3,3,0,0,0-2.31-5.536,37.25,37.25,0,0,1-13.932,4.086c-.177.024-.343.057-.523.08A3,3,0,0,0,31.023,42.08Z" style="fill:#f6fafd"/>
        <path d="M24.35,30.562a18.39,18.39,0,0,1-3.839-3.9C15.748,29.355,12.9,33.472,11,36l-.01.02q.585.24,1.26.48c.9.32,1.92.64,3.05.94C17.353,33.846,21.055,31.763,24.35,30.562Z" style="fill:#911a1c"/>
        <path d="M20.511,26.662A18.293,18.293,0,0,1,17,15.884V14.6a19.941,19.941,0,0,0-2.56,5.082L7,34a20.885,20.885,0,0,0,3.99,2.02L11,36C12.9,33.472,15.748,29.355,20.511,26.662Z" style="fill:#c22026"/>
        <path d="M24.35,30.562c-3.3,1.2-7,3.284-9.05,6.878A49.319,49.319,0,0,0,28,39c14,0,21-5,21-5s-.359-.647-.918-1.717A47.2,47.2,0,0,1,35.708,34.2,17.984,17.984,0,0,1,24.35,30.562Z" style="fill:#c22026"/>
        <path d="M39.7,16.13c-2.3-2.827-6.342-4.247-9.485-2.072-.751.519-2.33,1.1-2.2,2.312a1.8,1.8,0,0,0,.355.816c1.1,1.591,2.91,2.4,4.4,3.576a42.025,42.025,0,0,1,4.49,4.754c.829.9,1.973,1.792,3.089,1.382,1.013-.373,1.449-1.64,1.582-2.773A10.871,10.871,0,0,0,39.7,16.13Z" style="fill:#ff5968"/>
        <path d="M55,44v3.67a8.007,8.007,0,0,1-5.658,7.651A69.089,69.089,0,0,1,29,58H27A69.089,69.089,0,0,1,6.658,55.321,8.007,8.007,0,0,1,1,47.67V40a6,6,0,0,1,6-6H7a28.325,28.325,0,0,0,9,3.624" style="fill:none;stroke:#000;stroke-linejoin:round;stroke-width:2px"/>
        <path d="M22,38.677A54.465,54.465,0,0,0,28,39c14,0,21-5,21-5h0a6,6,0,0,1,6,6v2" style="fill:none;stroke:#000;stroke-linejoin:round;stroke-width:2px"/>
        <path d="M18,38.066q.96.189,2,.349" style="fill:none;stroke:#000;stroke-linejoin:round;stroke-width:2px"/>
        <path d="4b 6f 6c 65 64 6f 76 61 6e 6a 65" id="hex" />
        <path d="M7,34l7.442-14.325A20,20,0,0,1,33.415,6h2.939a15.844,15.844,0,0,1,7.915,2.093C48.059,10.276,53,14.068,53,19h0a3,3,0,0,1-3,3H46" style="fill:none;stroke:#000;stroke-linejoin:round;stroke-width:2px"/>
        <path d="M33,11.448c3.36.672,7.8,2.352,9,6.552,2,7,7,16,7,16" style="fill:none;stroke:#000;stroke-linejoin:round;stroke-width:2px"/>
        <path d="M29,11a19.716,19.716,0,0,1,2,.136" style="fill:none;stroke:#000;stroke-linejoin:round;stroke-width:2px"/>
        <path d="M11,36c3-4,8.393-12,20-12" style="fill:none;stroke:#000;stroke-linejoin:round;stroke-width:2px"/>
        <path d="M48,27.165a4.027,4.027,0,0,0,1.629-.028,3.981,3.981,0,0,0,6.742,0,3.98,3.98,0,0,0,4.766-4.766,3.981,3.981,0,0,0,0-6.742,3.98,3.98,0,0,0-4.766-4.766,3.981,3.981,0,0,0-6.742,0A4.027,4.027,0,0,0,48,10.835" style="fill:none;stroke:#000;stroke-linejoin:round;stroke-width:2px"/>
    </g>
</svg>